PathFileType	4	(X/Y/Z)	C:\Users\Basilio\Documents\Thesis Gigler\squatting_fais\c3dfiles\047\SLS_pre_back4\markers_experimental.trc
DataRate	CameraRate	NumFrames	NumMarkers	Units	OrigDataRate	OrigDataStartFrame	OrigNumFrames
200.000000	200.000000	4	61	mm	200.000000	316	1267
Frame#	Time	FHD			LBHD			RBHD			C7			T10			CLAV			LSHO			LUUPA			LMUPA			LDUPA			LLEP			LMEP			LRAD			LUL			LRFIN			RSHO			RUPA1			RMUPA			RDUPA			RLEP			RMEP			RUL			RUFIN			LASI			RASI			USACR			LSACR			RSACR			LTHI1			LTHI2			LTHI3			LTHI4			LLFC			LMFC			LTIB1			LTIB2			LTIB3			LTIB4			LLMAL			LMMAL			LMT1			LMT2			LMT5			RTHI			RTHI2			RTHI3			RTHI4			RLFC			RMFC			RTIB1			RTIB2			RTIB3			RTIB4			RLMAL			RMMAL			RHEE			RMT1			RMT2			RMT5			RRAD			*60			
		X1	Y1	Z1	X2	Y2	Z2	X3	Y3	Z3	X4	Y4	Z4	X5	Y5	Z5	X6	Y6	Z6	X7	Y7	Z7	X8	Y8	Z8	X9	Y9	Z9	X10	Y10	Z10	X11	Y11	Z11	X12	Y12	Z12	X13	Y13	Z13	X14	Y14	Z14	X15	Y15	Z15	X16	Y16	Z16	X17	Y17	Z17	X18	Y18	Z18	X19	Y19	Z19	X20	Y20	Z20	X21	Y21	Z21	X22	Y22	Z22	X23	Y23	Z23	X24	Y24	Z24	X25	Y25	Z25	X26	Y26	Z26	X27	Y27	Z27	X28	Y28	Z28	X29	Y29	Z29	X30	Y30	Z30	X31	Y31	Z31	X32	Y32	Z32	X33	Y33	Z33	X34	Y34	Z34	X35	Y35	Z35	X36	Y36	Z36	X37	Y37	Z37	X38	Y38	Z38	X39	Y39	Z39	X40	Y40	Z40	X41	Y41	Z41	X42	Y42	Z42	X43	Y43	Z43	X44	Y44	Z44	X45	Y45	Z45	X46	Y46	Z46	X47	Y47	Z47	X48	Y48	Z48	X49	Y49	Z49	X50	Y50	Z50	X51	Y51	Z51	X52	Y52	Z52	X53	Y53	Z53	X54	Y54	Z54	X55	Y55	Z55	X56	Y56	Z56	X57	Y57	Z57	X58	Y58	Z58	X59	Y59	Z59	X60	Y60	Z60	X61	Y61	Z61	

317	1.58	-164.4838104248047	1739.185668945313	-1107.873046875	-340.5747070312501	1697.047485351563	-1134.177612304688	-319.4803771972657	1704.318725585938	-986.6397705078127	-357.6024780273438	1518.272094726563	-1059.916748046875	-371.0339660644532	1208.96875	-1028.678833007813	-204.2772369384766	1466.72265625	-1084.713134765625	-280.5699157714844	1476.21923828125	-1237.55859375	-207.3250122070313	1332.137939453125	-1336.181274414063	-166.5957641601563	1359.253295898438	-1332.110107421875	-143.6907806396485	1305.447631835938	-1348.339111328125	-70.51598358154298	1295.837524414063	-1352.74169921875	-87.28597259521486	1241.98388671875	-1287.903686523438	73.37660980224611	1413.709716796875	-1172.592529296875	112.0417556762696	1349.722534179688	-1166.266845703125	164.7122497558594	1424.6357421875	-1166.162231445313	-240.5399017333985	1503.768310546875	-922.813415527344	-138.6486053466797	1365.243896484375	-822.329040527344	-100.0898132324219	1386.815551757813	-843.1392822265627	-75.94863128662111	1334.432861328125	-826.8462524414065	-3.225903987884522	1321.94970703125	-843.8782348632815	-31.55759239196778	1254.717529296875	-896.5306396484377	158.4066314697266	1357.270751953125	-1050.572509765625	137.0138854980469	1442.014892578125	-1080.058959960938	-199.8661041259766	982.7393798828127	-1119.379638671875	-193.5039520263672	1004.140869140625	-888.0166015625002	-376.8985900878907	1076.305419921875	-1009.482055664063	-383.6730041503907	1043.0693359375	-1034.972290039063	-379.8915405273438	1047.688354492188	-976.9461059570315	-287.3705444335938	828.6782836914065	-1178.78857421875	-254.9763641357422	750.9061889648439	-1175.026611328125	-206.3940734863282	753.4407348632814	-1161.829345703125	-285.8870239257813	698.2839355468751	-1166.933471679688	-319.6871032714844	528.2232055664064	-1123.671142578125	-292.4131774902344	521.9250488281251	-1002.067443847656	-293.2707214355469	345.8462524414063	-1025.274169921875	-301.9216003417969	297.9041748046876	-1097.837280273438	-286.5293273925782	296.4348754882813	-1052.103515625	-300.7370910644532	220.7208862304688	-1018.955017089844	-352.8573913574219	124.63232421875	-1059.666137695313	-329.7671813964844	139.5064544677735	-974.3328247070315	-209.9881744384766	63.0337257385254	-992.2006835937502	-210.711410522461	60.37181472778322	-1037.19140625	-259.4147033691407	49.08581924438478	-1080.833862304688	-250.2515869140626	825.0533447265627	-782.8843994140627	-201.0801849365235	779.7030029296877	-775.8740234375002	-171.5167236328125	784.6558837890627	-787.5501098632815	-211.4084930419922	696.3874511718751	-766.5672607421876	-186.9275970458985	565.9751586914064	-774.789245605469	-178.9755859375	531.8758544921876	-901.1380004882815	-268.8036193847657	472.9498901367189	-774.3555297851565	-367.9781494140626	509.5609130859376	-743.9770507812501	-350.8660278320313	466.1192932128907	-748.1846313476564	-392.4711303710939	432.1804199218751	-775.4937133789065	-557.0859985351564	443.9570922851564	-746.4738769531251	-531.4978637695314	403.736053466797	-825.9320068359377	-586.2269287109376	484.7119750976564	-811.573181152344	-591.4121093750001	276.8966369628907	-795.822204589844	-593.4937133789064	277.8706970214844	-750.6768798828126	-631.6975097656251	331.4808349609376	-709.4714965820314	90.39104461669923	1376.198974609375	-1078.010620117188	nan	nan	nan	
318	1.585	-164.2942504882813	1739.140502929688	-1107.810913085938	-341.0060729980469	1697.391723632813	-1134.043579101563	-319.4303588867188	1704.37451171875	-986.5430297851565	-357.5195007324219	1518.247436523438	-1059.881958007813	-371.0764160156251	1209.055053710938	-1028.633178710938	-204.1859893798829	1466.786743164063	-1084.700317382813	-280.4285888671876	1476.342651367188	-1237.525390625	-207.1608886718751	1332.274291992188	-1336.133422851563	-166.4723205566407	1359.366333007813	-1332.088745117188	-143.6117858886719	1305.545043945313	-1348.291259765625	-70.42050170898439	1296.009765625	-1352.697509765625	-87.31874847412111	1242.01611328125	-1287.987426757813	73.4580764770508	1413.8017578125	-1172.509521484375	112.0755996704102	1349.845458984375	-1166.075561523438	164.8047027587891	1424.70556640625	-1166.024047851563	-240.3358612060547	1503.8125	-922.7427978515627	-138.5827178955078	1365.3017578125	-822.129089355469	-100.0240249633789	1386.889282226563	-842.9802856445315	-75.87336730957033	1334.519775390625	-826.807556152344	-3.051726341247559	1322.094848632813	-843.9754028320315	-31.59084510803223	1254.871215820313	-896.4328613281252	158.5083312988282	1357.379150390625	-1050.530395507813	137.1156158447266	1442.072021484375	-1079.897094726563	-199.9168090820313	982.6947021484377	-1119.31982421875	-193.5562744140626	1004.12353515625	-887.9335937500002	-376.8865356445313	1076.330688476563	-1009.480895996094	-383.6757812500001	1043.132080078125	-1034.947631835938	-379.9950256347657	1047.721923828125	-976.8704223632815	-287.5055847167969	828.6680297851565	-1178.785400390625	-255.1398162841797	750.8723754882814	-1175.047729492188	-206.4816894531251	753.3772583007814	-1161.85791015625	-286.0299987792969	698.2563476562501	-1166.889892578125	-319.8024597167969	528.1806030273439	-1123.60595703125	-292.5267944335938	521.9248657226564	-1001.989013671875	-293.2644042968751	345.9090270996094	-1025.022338867188	-301.9454650878907	297.8350830078126	-1097.8330078125	-286.5082702636719	296.4225463867188	-1052.03125	-300.7493286132813	220.7293243408204	-1018.832275390625	-352.7619323730469	124.651351928711	-1059.64453125	-329.8217468261719	139.4696807861328	-974.2368774414065	-210.0089416503907	62.98489379882814	-992.1555175781252	-210.4856262207032	60.47439575195314	-1037.192260742188	-259.4285583496094	49.06954574584962	-1080.832763671875	-250.3101348876954	825.0425415039065	-782.8359985351565	-201.1279296875001	779.6040039062502	-775.7783203125002	-171.542724609375	784.6592407226565	-787.5247802734377	-211.4582214355469	696.3383178710939	-766.5389404296876	-187.0603942871094	565.9161376953126	-774.6894531250002	-179.2711181640625	532.2607421875001	-901.000427246094	-268.9597167968751	472.9560852050782	-774.2896728515627	-368.1609191894532	509.5874023437501	-743.9394531250001	-351.0865478515626	466.1402282714845	-748.1291503906251	-392.7284545898439	432.2378234863282	-775.4113769531252	-557.2281494140626	443.9585266113282	-746.5464477539064	-531.5750732421876	403.7036437988282	-826.0230102539065	-586.3475341796876	484.7090454101564	-811.6707763671877	-591.6163940429689	277.0270385742188	-796.016784667969	-593.6406250000001	277.8414001464844	-750.9068603515626	-631.9022827148439	331.4786376953126	-709.6694335937501	90.46021270751955	1376.278930664063	-1077.874145507813	nan	nan	nan	
319	1.59	-164.0842895507813	1739.186157226563	-1107.794067382813	-340.3000793457032	1697.118286132813	-1134.122802734375	-319.1902465820313	1704.490600585938	-986.8159790039065	-357.4524841308594	1518.18310546875	-1059.823974609375	-370.9956970214844	1209.112548828125	-1028.517211914063	-204.019027709961	1466.836059570313	-1084.638671875	-280.5984802246094	1476.419677734375	-1237.331787109375	-207.0050964355469	1332.399536132813	-1336.070190429688	-166.2652740478516	1359.496459960938	-1332.057250976563	-143.4568786621094	1305.635986328125	-1348.277221679688	-70.14946746826173	1296.17431640625	-1352.659912109375	-87.04949951171876	1242.030151367188	-1287.910522460938	73.57727050781251	1413.95556640625	-1172.43359375	112.2013778686524	1349.924682617188	-1165.997924804688	164.8785858154297	1424.792602539063	-1165.925903320313	-240.390365600586	1503.921752929688	-922.7832641601565	-138.4529724121094	1365.459594726563	-822.152770996094	-100.0986022949219	1387.030029296875	-842.7217407226565	-75.86272430419923	1334.5859375	-826.6362915039065	-2.886066198348999	1322.175415039063	-843.9626464843752	-31.51425552368165	1254.933715820313	-896.346130371094	158.6955261230469	1357.531005859375	-1050.487548828125	137.2342376708985	1442.130004882813	-1079.685180664063	-199.7499237060547	982.7415771484377	-1119.428833007813	-193.6861877441407	1004.117797851563	-887.813415527344	-376.9815673828126	1076.42822265625	-1009.397705078125	-383.7200012207032	1043.170288085938	-1034.901000976563	-379.8930358886719	1047.7216796875	-976.792175292969	-287.1820678710938	828.8826293945315	-1178.909545898438	-255.1722412109376	750.8017578125001	-1175.017333984375	-206.6036834716797	753.3928222656251	-1161.78173828125	-286.0645446777344	698.2010498046876	-1166.87744140625	-319.8654479980469	528.1412963867189	-1123.533813476563	-292.7625122070313	521.8115234375001	-1001.795104980469	-293.3151855468751	345.8217773437501	-1024.888061523438	-301.9686584472657	297.7590332031251	-1097.68603515625	-286.3442993164063	296.1704101562501	-1051.9404296875	-300.7413635253907	220.7617797851563	-1018.691833496094	-352.6614685058594	124.6318893432617	-1059.541137695313	-329.8288269042969	139.4013977050782	-974.1102294921877	-209.8334197998047	63.02686691284181	-992.1187744140627	-210.2864685058594	60.0649757385254	-1037.146240234375	-259.3603210449219	49.21102523803712	-1080.7724609375	-250.3551788330079	825.0144042968752	-782.7986450195315	-201.129867553711	779.4912719726565	-776.0185546875002	-171.7577362060547	784.7149047851565	-786.9756469726565	-211.4856109619141	696.3430175781251	-766.5112304687501	-187.1207885742188	565.9161987304689	-774.5942993164065	-179.119857788086	531.8660888671876	-900.9910888671877	-269.0751647949219	472.8839111328126	-774.2221679687502	-368.3835754394532	509.5391845703126	-743.9670410156251	-351.2260742187501	466.1758422851564	-748.1726684570314	-392.9368286132814	432.3043518066407	-775.2959594726565	-557.3861083984376	443.9504394531251	-746.6263427734376	-531.7203979492189	403.738983154297	-826.1033325195315	-586.5772094726564	484.6791992187501	-811.779724121094	-591.7918090820314	276.9728393554688	-796.185241699219	-593.8052978515626	277.7825012207032	-751.1841430664064	-632.0766601562501	331.4866943359376	-709.9475708007814	90.53775024414064	1376.372436523438	-1077.6572265625	nan	nan	nan	
320	1.595	-163.9136505126953	1739.218139648438	-1107.70556640625	-340.2251281738282	1697.143920898438	-1134.0419921875	-319.3226623535157	1704.41015625	-986.4166259765627	-357.3963623046876	1518.22119140625	-1059.81689453125	-370.9926757812501	1209.083862304688	-1028.484741210938	-203.869613647461	1466.896118164063	-1084.6025390625	-280.3771667480469	1476.44921875	-1237.3330078125	-207.2174682617188	1332.548217773438	-1335.488647460938	-166.0751953125	1359.577026367188	-1332.041625976563	-143.2808990478516	1305.784790039063	-1348.264282226563	-70.00081634521486	1296.312255859375	-1352.654174804688	-86.14251708984376	1242.44580078125	-1287.416748046875	73.54531860351564	1414.049682617188	-1172.235473632813	112.3734283447266	1350.093627929688	-1165.885986328125	164.9244537353516	1424.931884765625	-1165.77734375	-240.1077728271485	1503.965942382813	-922.7624511718752	-138.2743072509766	1365.59814453125	-822.083435058594	-100.0942001342774	1387.158203125	-842.6652832031252	-75.74752807617189	1334.709838867188	-826.5561523437502	-2.87884521484375	1322.1767578125	-843.5917968750002	-31.3761329650879	1255.026123046875	-896.3167114257815	158.7763671875	1357.5712890625	-1050.266235351563	137.3251342773438	1442.191284179688	-1079.517944335938	-199.8374328613282	982.671081542969	-1119.34619140625	-193.7692565917969	1004.092834472656	-887.7893676757815	-376.9620971679688	1076.476928710938	-1009.341918945313	-383.6980895996094	1043.210571289063	-1034.890747070313	-380.0298461914063	1047.7998046875	-976.790954589844	-287.3043823242188	828.8458251953127	-1178.86962890625	-255.2364654541016	750.7616577148439	-1174.974365234375	-206.7186126708985	753.3546752929689	-1161.795166015625	-286.2148437500001	698.1984863281251	-1166.828125	-319.8568115234376	528.1070556640626	-1123.4423828125	-292.7914123535157	521.7889404296876	-1001.774841308594	-293.3502197265626	345.7816467285157	-1024.6845703125	-301.4818725585938	298.0987548828126	-1097.59326171875	-286.3238220214844	296.1914062500001	-1051.808959960938	-300.8140563964844	220.7516326904297	-1018.526489257813	-352.6764221191407	124.6367111206055	-1059.480346679688	-329.8037719726563	139.3587493896485	-973.9861450195315	-209.8889617919922	62.97787094116212	-992.0611572265627	-210.5328521728516	60.4918785095215	-1037.073120117188	-259.4172058105469	49.17066574096681	-1080.735107421875	-250.3513793945313	825.0288085937502	-782.9107666015627	-201.1743927001954	779.4749145507815	-775.9501953125002	-171.8563232421875	784.6968994140627	-786.9600830078127	-211.7382965087891	696.3424072265626	-766.3449707031251	-187.2373809814453	565.8765869140626	-774.719909667969	-179.113525390625	531.8486938476564	-900.974792480469	-269.1027526855469	472.878631591797	-774.3037719726565	-368.5279235839844	509.5142517089845	-744.0144653320314	-351.3895874023438	466.0860595703126	-748.1016235351564	-393.196746826172	432.2676391601564	-775.1322021484377	-557.5379638671876	443.9510803222657	-746.7980957031251	-531.8634033203126	403.758514404297	-826.2007446289065	-586.6440429687501	484.6924438476564	-811.8745117187502	-591.9291381835939	276.9995422363282	-796.3626098632815	-594.0329589843751	277.7822875976563	-751.5216674804689	-632.2924194335939	331.4016723632813	-710.1101074218751	90.66209411621095	1376.455444335938	-1077.7734375	nan	nan	nan	
